<svg width="1029" height="215" viewBox="0 0 1029 215" fill="none" xmlns="http://www.w3.org/2000/svg">
<path d="M56.384 214.12C38.704 214.12 24.872 209.232 14.888 199.456C5.112 189.472 0.224 174.912 0.224 155.776V63.112H42.344V154.84C42.344 164.824 44.736 172.104 49.52 176.68C54.304 181.048 61.48 183.232 71.048 183.232C78.328 183.232 84.984 181.776 91.016 178.864C97.256 175.952 102.56 172.312 106.928 167.944V63.112H149.048V211H110.048L108.488 196.96C102.248 201.952 94.864 206.112 86.336 209.44C78.016 212.56 68.032 214.12 56.384 214.12ZM237.005 214.12C225.981 214.12 215.477 213.288 205.493 211.624C195.509 210.168 187.501 208.296 181.469 206.008V171.064C188.749 173.976 196.965 176.264 206.117 177.928C215.269 179.384 223.693 180.112 231.389 180.112C241.789 180.112 249.069 179.488 253.229 178.24C257.597 176.992 259.781 174.184 259.781 169.816C259.781 164.824 256.453 161.184 249.797 158.896C243.349 156.608 233.677 153.384 220.781 149.224C207.261 144.648 196.861 139.136 189.581 132.688C182.301 126.24 178.661 116.672 178.661 103.984C178.661 89.84 183.757 79.024 193.949 71.536C204.349 63.84 220.989 59.992 243.869 59.992C253.021 59.992 261.653 60.72 269.765 62.176C277.877 63.424 284.741 64.984 290.357 66.856V101.488C284.741 98.784 278.293 96.808 271.013 95.56C263.733 94.104 256.973 93.376 250.733 93.376C241.789 93.376 234.613 94 229.205 95.248C224.005 96.496 221.405 99.2 221.405 103.36C221.405 107.936 224.213 111.16 229.829 113.032C235.653 114.904 244.597 117.712 256.661 121.456C268.517 124.992 277.773 128.84 284.429 133C291.085 137.16 295.765 142.152 298.469 147.976C301.173 153.592 302.525 160.664 302.525 169.192C302.525 199.144 280.685 214.12 237.005 214.12ZM404.254 214.12C378.67 214.12 358.39 207.776 343.414 195.088C328.438 182.192 320.95 162.744 320.95 136.744C320.95 113.24 327.19 94.624 339.67 80.896C352.358 66.96 371.182 59.992 396.142 59.992C419.022 59.992 436.494 66.024 448.558 78.088C460.83 89.944 466.966 105.544 466.966 124.888V151.72H359.95C362.238 163.576 367.646 171.688 376.174 176.056C384.91 180.424 397.182 182.608 412.99 182.608C420.894 182.608 428.902 181.88 437.014 180.424C445.334 178.968 452.406 177.096 458.23 174.808V204.76C451.366 207.88 443.358 210.168 434.206 211.624C425.054 213.288 415.07 214.12 404.254 214.12ZM359.95 125.824H430.15V117.712C430.15 109.184 427.654 102.528 422.662 97.744C417.67 92.752 409.246 90.256 397.39 90.256C383.454 90.256 373.678 93.064 368.062 98.68C362.654 104.296 359.95 113.344 359.95 125.824ZM515.036 211L476.036 63.112H518.156L540.62 159.208L565.268 82.144V63.112H597.404L625.484 159.208L647.324 63.112H689.132L650.444 211H611.756L583.364 124.576L554.348 211H515.036ZM781.457 214.12C755.873 214.12 735.593 207.776 720.617 195.088C705.641 182.192 698.153 162.744 698.153 136.744C698.153 113.24 704.393 94.624 716.873 80.896C729.561 66.96 748.385 59.992 773.345 59.992C796.225 59.992 813.697 66.024 825.761 78.088C838.033 89.944 844.169 105.544 844.169 124.888V151.72H737.153C739.441 163.576 744.849 171.688 753.377 176.056C762.113 180.424 774.385 182.608 790.193 182.608C798.097 182.608 806.105 181.88 814.217 180.424C822.537 178.968 829.609 177.096 835.433 174.808V204.76C828.569 207.88 820.561 210.168 811.409 211.624C802.257 213.288 792.273 214.12 781.457 214.12ZM737.153 125.824H807.353V117.712C807.353 109.184 804.857 102.528 799.865 97.744C794.873 92.752 786.449 90.256 774.593 90.256C760.657 90.256 750.881 93.064 745.265 98.68C739.857 104.296 737.153 113.344 737.153 125.824ZM960.543 214.12C950.143 214.12 941.095 212.768 933.399 210.064C925.703 207.152 918.631 202.888 912.183 197.272L909.999 211H873.495V0.711992H915.615V71.224C921.647 67.48 928.407 64.672 935.895 62.8C943.383 60.928 951.183 59.992 959.295 59.992C980.511 59.992 997.255 66.024 1009.53 78.088C1022.01 89.944 1028.25 109.184 1028.25 135.808C1028.25 162.432 1022.11 182.192 1009.84 195.088C997.775 207.776 981.343 214.12 960.543 214.12ZM948.687 183.232C962.207 183.232 971.671 179.28 977.079 171.376C982.695 163.472 985.503 151.616 985.503 135.808C985.503 119.376 982.487 107.832 976.455 101.176C970.631 94.312 961.271 90.88 948.375 90.88C941.927 90.88 935.791 91.816 929.967 93.688C924.351 95.56 919.567 98.264 915.615 101.8V169.816C919.775 174.184 924.663 177.512 930.279 179.8C936.103 182.088 942.239 183.232 948.687 183.232Z" fill="#00C2B8"/>
</svg>
