<svg width="1200" height="630" viewBox="0 0 1200 630" fill="none" xmlns="http://www.w3.org/2000/svg">
<path d="M0 40C0 17.9086 17.9086 0 40 0H1160C1182.09 0 1200 17.9086 1200 40V590C1200 612.091 1182.09 630 1160 630H40C17.9086 630 0 612.091 0 590V40Z" fill="#0C1014"/>
<path d="M437.211 58.1694C434.323 58.1694 431.982 60.515 431.982 63.4086C431.982 66.3022 434.323 68.6478 437.211 68.6478C440.099 68.6478 442.439 66.3022 442.439 63.4086C442.439 60.515 440.099 58.1694 437.211 58.1694Z" fill="#FF3ABC"/>
<path d="M753.983 79.4251C753.983 80.1305 753.38 80.7351 752.676 80.7351C751.972 80.7351 751.369 80.1305 751.369 79.4251C751.369 78.7198 751.972 78.1152 752.676 78.1152C753.38 78.1152 753.983 78.7198 753.983 79.4251Z" fill="#09FFF1"/>
<path d="M611.145 51.3203C611.145 52.0256 610.542 52.6302 609.838 52.6302C609.134 52.6302 608.53 52.0256 608.53 51.3203C608.53 50.6149 609.134 50.0103 609.838 50.0103C610.642 50.0103 611.145 50.6149 611.145 51.3203Z" fill="#09FFF1"/>
<path d="M102.192 111.969L65.9942 93.4297L76.954 84.9663L102.192 111.969Z" fill="#09FFF1"/>
<path d="M102.469 113.88L66.1705 95.3414L77.1303 86.878L102.469 113.88Z" fill="#CC008E"/>
<path d="M1028.93 83.9649C1028.93 86.9876 1026.52 89.4057 1023.5 89.4057C1020.49 89.4057 1018.07 86.9876 1018.07 83.9649C1018.07 80.9423 1020.49 78.5242 1023.5 78.5242C1026.52 78.5242 1028.93 80.9423 1028.93 83.9649Z" fill="#09FFF1"/>
<path d="M1027.55 83.9649C1027.55 86.9876 1025.14 89.4057 1022.12 89.4057C1019.1 89.4057 1016.69 86.9876 1016.69 83.9649C1016.69 80.9423 1019.1 78.5242 1022.12 78.5242C1025.14 78.5242 1027.55 80.9423 1027.55 83.9649Z" fill="#CC008E"/>
<path d="M985.288 52.5279C985.288 53.737 984.282 54.7445 983.076 54.7445C981.869 54.7445 980.863 53.737 980.863 52.5279C980.863 51.3189 981.869 50.3113 983.076 50.3113C984.282 50.3113 985.288 51.3189 985.288 52.5279Z" fill="#09FFF1"/>
<path d="M803.911 70.8717C803.381 72.2176 804.041 73.7389 805.384 74.2696C806.727 74.8003 808.245 74.1394 808.775 72.7934C809.305 71.4475 808.645 69.9262 807.302 69.3955C805.959 68.8648 804.44 69.5258 803.911 70.8717Z" fill="#09FFF1"/>
<path d="M1161.48 105.318C1158.81 105.318 1156.65 107.483 1156.65 110.154C1156.65 112.825 1158.81 114.99 1161.48 114.99C1164.14 114.99 1166.3 112.825 1166.3 110.154C1166.3 107.483 1164.14 105.318 1161.48 105.318Z" fill="#09FFF1"/>
<path d="M343.189 38.7234C342.261 42.6774 344.707 46.637 348.653 47.5672C352.599 48.4974 356.551 46.0461 357.479 42.092C358.407 38.138 355.961 34.1785 352.015 33.2483C348.069 32.318 344.118 34.7693 343.189 38.7234Z" fill="#09FFF1"/>
<path d="M379.495 44.8723C379.495 45.6784 378.791 46.3837 377.987 46.3837C377.182 46.3837 376.478 45.6784 376.478 44.8723C376.478 44.0663 377.182 43.361 377.987 43.361C378.791 43.2603 379.495 43.9655 379.495 44.8723Z" fill="#09FFF1"/>
<path d="M265.74 48.9287C265.343 49.9083 265.814 51.0247 266.792 51.4221C267.769 51.8195 268.884 51.3475 269.28 50.3679C269.677 49.3882 269.206 48.2718 268.228 47.8744C267.25 47.477 266.136 47.949 265.74 48.9287Z" fill="#CC008E"/>
<path d="M56.3349 109.253C57.0388 112.578 54.9273 116.004 51.6092 116.709C48.2911 117.414 44.8724 115.298 44.1686 111.973C43.4647 108.649 45.5762 105.223 48.8943 104.518C52.2124 103.712 55.5305 105.827 56.3349 109.253Z" fill="#09FFF1"/>
<path d="M41.3985 108.165C39.6188 111.119 40.5656 114.959 43.5131 116.742C46.4606 118.525 50.2927 117.577 52.0723 114.623C53.852 111.67 52.9053 107.83 49.9577 106.046C47.0102 104.263 43.1782 105.212 41.3985 108.165Z" fill="#CC008E"/>
<path d="M680.974 53.6371C677.975 53.6371 675.544 56.2084 675.544 59.3802C675.544 62.552 677.975 65.1232 680.974 65.1232C683.972 65.1232 686.403 62.552 686.403 59.3802C686.403 56.2084 683.972 53.6371 680.974 53.6371Z" fill="#09FFF1"/>
<path d="M677.859 53.6372C674.86 53.6372 672.429 56.2084 672.429 59.3802C672.429 62.552 674.86 65.1232 677.859 65.1232C680.858 65.1232 683.289 62.552 683.289 59.3802C683.289 56.2084 680.858 53.6372 677.859 53.6372Z" fill="#CC008E"/>
<path d="M205.349 76.6034L204.947 44.6641L233.201 63.203L205.349 76.6034Z" fill="#CC008E"/>
<path d="M982.935 77.7152L978.41 99.1759L962.322 82.5514L982.935 77.7152Z" fill="#CC008E"/>
<path d="M980.79 76.8081L976.165 98.2688L960.077 81.6443L980.79 76.8081Z" fill="#09FFF1"/>
<path d="M815.658 83.8629L825.31 74.392L827.925 88.4976L815.658 83.8629Z" fill="#CC008E"/>
<path d="M816.488 85.0701L826.14 75.5992L828.755 89.7048L816.488 85.0701Z" fill="#09FFF1"/>
<path d="M1137.42 78.5202L1135.71 73.9863L1122.03 90.9131L1120.72 85.7746L1103.93 105.22L1122.64 74.8931L1124.55 80.5353L1137.82 61.9965L1139.73 68.1425L1157.73 49.6036L1137.42 78.5202Z" fill="#09FFF1"/>
<path d="M1137.14 74.4938L1135.53 69.9598L1121.76 86.8866L1120.45 81.7481L1103.66 101.194L1122.46 70.8666L1124.37 76.5089L1137.64 57.97L1139.55 64.116L1157.45 45.5772L1137.14 74.4938Z" fill="#CC008E"/>
<path d="M506.511 37.8116C505.567 37.8116 504.801 38.5784 504.801 39.5244C504.801 40.4704 505.567 41.2372 506.511 41.2372C507.455 41.2372 508.22 40.4704 508.22 39.5244C508.22 38.5784 507.455 37.8116 506.511 37.8116Z" fill="#CC008E"/>
<path d="M752.756 48.0942C751.812 48.0942 751.047 48.8611 751.047 49.8071C751.047 50.7531 751.812 51.5199 752.756 51.5199C753.7 51.5199 754.466 50.7531 754.466 49.8071C754.466 48.8611 753.7 48.0942 752.756 48.0942Z" fill="#CC008E"/>
<path d="M135.355 50.0023C135.556 50.9091 134.953 51.9166 134.048 52.1182C133.143 52.3197 132.138 51.7151 131.937 50.8084C131.736 49.9016 132.339 48.894 133.244 48.6925C134.149 48.491 135.154 49.0955 135.355 50.0023Z" fill="#09FFF1"/>
<path d="M66.1153 69.853C66.3164 70.7598 65.7131 71.7674 64.8081 71.9689C63.9032 72.1704 62.8977 71.5658 62.6966 70.6591C62.4955 69.7523 63.0987 68.7447 64.0037 68.5432C64.9086 68.3417 65.9142 68.9462 66.1153 69.853Z" fill="#CC008E"/>
<path d="M108.728 59.9832L106.014 64.5171L93.4452 41.8473L85.8035 53.9379L107.12 74.5926L109.935 68.7488L121.699 83.6605L108.728 59.9832Z" fill="#09FFF1"/>
<path d="M104.507 59.4818L101.893 64.0158L89.3245 41.346L81.5822 53.4365L102.899 73.9905L105.814 68.1467L117.478 83.1592L104.507 59.4818Z" fill="#CC008E"/>
<path d="M878.634 87.7932L890.801 55.9547L889.192 50.2117L878.634 87.7932Z" fill="#CC008E"/>
<path d="M876.421 91.0173L888.587 59.1788L886.978 53.5365L876.421 91.0173Z" fill="#09FFF1"/>
<path d="M367.737 69.4546L357.179 87.1874L357.481 90.8146L367.737 69.4546Z" fill="#CC008E"/>
<path d="M369.328 67.7407L358.77 85.4735L359.173 88.9999L369.328 67.7407Z" fill="#09FFF1"/>
<path d="M308.838 60.9837C308.838 59.4724 310.045 58.2633 311.553 58.2633C313.061 58.2633 314.268 59.4724 314.268 60.9837C314.268 62.495 313.061 63.7041 311.553 63.7041C310.045 63.7041 308.838 62.495 308.838 60.9837Z" fill="#09FFF1"/>
<path d="M33 66.525C33 65.5174 33.8043 64.7114 34.8097 64.7114C35.8152 64.7114 36.6196 65.5174 36.6196 66.525C36.6196 67.5325 35.8152 68.3385 34.8097 68.3385C33.8043 68.3385 33 67.5325 33 66.525Z" fill="#09FFF1"/>
<path d="M49.5324 47.9876C49.5324 46.9801 50.3367 46.1741 51.3422 46.1741C52.3477 46.1741 53.1521 46.9801 53.1521 47.9876C53.1521 48.9952 52.3477 49.8012 51.3422 49.8012C50.3367 49.8012 49.5324 48.9952 49.5324 47.9876Z" fill="#09FFF1"/>
<path d="M1092.18 54.1351C1090.51 54.1351 1089.16 55.4883 1089.16 57.1577C1089.16 58.8271 1090.51 60.1804 1092.18 60.1804C1093.85 60.1804 1095.2 58.8271 1095.2 57.1577C1095.2 55.4883 1093.85 54.1351 1092.18 54.1351Z" fill="#FF3ABC"/>
<path d="M853.267 51.1127C851.601 51.1127 850.251 52.466 850.251 54.1353C850.251 55.8047 851.601 57.158 853.267 57.158C854.933 57.158 856.284 55.8047 856.284 54.1353C856.284 52.466 854.933 51.1127 853.267 51.1127Z" fill="#FF3ABC"/>
<path d="M1122.9 117.716C1122.9 116.204 1124.11 114.995 1125.61 114.995C1127.12 114.995 1128.33 116.204 1128.33 117.716C1128.33 119.227 1127.12 120.436 1125.61 120.436C1124.11 120.335 1122.9 119.126 1122.9 117.716Z" fill="#09FFF1"/>
<path d="M173.289 55.1454C173.289 54.0371 174.194 53.1303 175.3 53.1303C176.406 53.1303 177.311 54.0371 177.311 55.1454C177.311 56.2537 176.406 57.1605 175.3 57.1605C174.194 57.2612 173.289 56.3545 173.289 55.1454Z" fill="#09FFF1"/>
<path d="M757.093 566.267C759.981 566.267 762.322 563.921 762.322 561.028C762.322 558.134 759.981 555.788 757.093 555.788C754.206 555.788 751.865 558.134 751.865 561.028C751.865 563.921 754.206 566.267 757.093 566.267Z" fill="#FF3ABC"/>
<path d="M440.321 545.011C440.321 544.306 440.924 543.701 441.628 543.701C442.332 543.701 442.936 544.306 442.936 545.011C442.936 545.716 442.332 546.321 441.628 546.321C440.924 546.321 440.321 545.716 440.321 545.011Z" fill="#09FFF1"/>
<path d="M583.159 573.116C583.159 572.41 583.763 571.806 584.466 571.806C585.17 571.806 585.774 572.41 585.774 573.116C585.774 573.821 585.17 574.426 584.466 574.426C583.662 574.426 583.159 573.821 583.159 573.116Z" fill="#09FFF1"/>
<path d="M1092.11 512.468L1128.31 531.006L1117.35 539.47L1092.11 512.468Z" fill="#09FFF1"/>
<path d="M1091.84 510.556L1128.13 529.095L1117.17 537.558L1091.84 510.556Z" fill="#CC008E"/>
<path d="M165.371 540.471C165.371 537.448 167.784 535.03 170.801 535.03C173.817 535.03 176.23 537.448 176.23 540.471C176.23 543.494 173.817 545.912 170.801 545.912C167.784 545.912 165.371 543.494 165.371 540.471Z" fill="#09FFF1"/>
<path d="M166.754 540.471C166.754 537.448 169.168 535.03 172.184 535.03C175.2 535.03 177.614 537.448 177.614 540.471C177.614 543.494 175.2 545.912 172.184 545.912C169.168 545.912 166.754 543.494 166.754 540.471Z" fill="#CC008E"/>
<path d="M209.017 571.908C209.017 570.699 210.022 569.692 211.229 569.692C212.435 569.692 213.441 570.699 213.441 571.908C213.441 573.117 212.435 574.125 211.229 574.125C210.022 574.125 209.017 573.117 209.017 571.908Z" fill="#09FFF1"/>
<path d="M390.393 553.564C390.923 552.218 390.263 550.697 388.92 550.166C387.577 549.636 386.059 550.297 385.529 551.643C385 552.989 385.659 554.51 387.002 555.041C388.346 555.571 389.864 554.91 390.393 553.564Z" fill="#09FFF1"/>
<path d="M32.8263 519.118C35.4918 519.118 37.6526 516.953 37.6526 514.282C37.6526 511.611 35.4918 509.446 32.8263 509.446C30.1608 509.446 28 511.611 28 514.282C28 516.953 30.1608 519.118 32.8263 519.118Z" fill="#09FFF1"/>
<path d="M851.115 585.713C852.043 581.759 849.597 577.799 845.651 576.869C841.705 575.939 837.753 578.39 836.825 582.344C835.897 586.298 838.343 590.258 842.289 591.188C846.235 592.118 850.186 589.667 851.115 585.713Z" fill="#09FFF1"/>
<path d="M814.809 579.564C814.809 578.758 815.513 578.052 816.318 578.052C817.122 578.052 817.826 578.758 817.826 579.564C817.826 580.37 817.122 581.075 816.318 581.075C815.513 581.176 814.809 580.471 814.809 579.564Z" fill="#09FFF1"/>
<path d="M928.564 575.507C928.961 574.528 928.49 573.411 927.512 573.014C926.535 572.617 925.421 573.089 925.024 574.068C924.627 575.048 925.098 576.164 926.076 576.562C927.054 576.959 928.168 576.487 928.564 575.507Z" fill="#CC008E"/>
<path d="M1137.97 515.183C1137.27 511.858 1139.38 508.433 1142.7 507.727C1146.01 507.022 1149.43 509.138 1150.14 512.463C1150.84 515.788 1148.73 519.213 1145.41 519.919C1142.09 520.725 1138.77 518.609 1137.97 515.183Z" fill="#09FFF1"/>
<path d="M1152.91 516.271C1154.69 513.317 1153.74 509.477 1150.79 507.694C1147.84 505.911 1144.01 506.859 1142.23 509.813C1140.45 512.767 1141.4 516.606 1144.35 518.39C1147.29 520.173 1151.13 519.224 1152.91 516.271Z" fill="#CC008E"/>
<path d="M513.331 570.799C516.329 570.799 518.76 568.228 518.76 565.056C518.76 561.884 516.329 559.313 513.331 559.313C510.332 559.313 507.901 561.884 507.901 565.056C507.901 568.228 510.332 570.799 513.331 570.799Z" fill="#09FFF1"/>
<path d="M516.445 570.799C519.444 570.799 521.875 568.228 521.875 565.056C521.875 561.884 519.444 559.313 516.445 559.313C513.447 559.313 511.016 561.884 511.016 565.056C511.016 568.228 513.447 570.799 516.445 570.799Z" fill="#CC008E"/>
<path d="M988.955 547.833L989.357 579.772L961.103 561.233L988.955 547.833Z" fill="#CC008E"/>
<path d="M211.369 546.721L215.894 525.26L231.982 541.885L211.369 546.721Z" fill="#CC008E"/>
<path d="M213.514 547.628L218.14 526.167L234.227 542.792L213.514 547.628Z" fill="#09FFF1"/>
<path d="M378.647 540.573L368.994 550.044L366.38 535.938L378.647 540.573Z" fill="#CC008E"/>
<path d="M377.816 539.366L368.164 548.837L365.55 534.731L377.816 539.366Z" fill="#09FFF1"/>
<path d="M56.8882 545.916L58.5975 550.45L72.2721 533.523L73.5792 538.661L90.3708 519.216L71.6688 549.543L69.7584 543.901L56.486 562.44L54.5756 556.294L36.5774 574.832L56.8882 545.916Z" fill="#09FFF1"/>
<path d="M57.1645 549.942L58.7733 554.476L72.5484 537.549L73.8556 542.688L90.6472 523.242L71.8446 553.569L69.9342 547.927L56.6618 566.466L54.7514 560.32L36.8538 578.859L57.1645 549.942Z" fill="#CC008E"/>
<path d="M687.794 586.625C688.738 586.625 689.503 585.858 689.503 584.912C689.503 583.966 688.738 583.199 687.794 583.199C686.85 583.199 686.084 583.966 686.084 584.912C686.084 585.858 686.85 586.625 687.794 586.625Z" fill="#CC008E"/>
<path d="M441.548 576.342C442.492 576.342 443.257 575.575 443.257 574.629C443.257 573.683 442.492 572.916 441.548 572.916C440.604 572.916 439.838 573.683 439.838 574.629C439.838 575.575 440.604 576.342 441.548 576.342Z" fill="#CC008E"/>
<path d="M1058.95 574.434C1058.75 573.527 1059.35 572.52 1060.26 572.318C1061.16 572.116 1062.17 572.721 1062.37 573.628C1062.57 574.535 1061.97 575.542 1061.06 575.744C1060.16 575.945 1059.15 575.341 1058.95 574.434Z" fill="#09FFF1"/>
<path d="M1128.19 554.583C1127.99 553.676 1128.59 552.669 1129.5 552.467C1130.4 552.266 1131.41 552.87 1131.61 553.777C1131.81 554.684 1131.21 555.691 1130.3 555.893C1129.4 556.094 1128.39 555.49 1128.19 554.583Z" fill="#CC008E"/>
<path d="M1085.58 564.453L1088.29 559.919L1100.86 582.589L1108.5 570.498L1087.18 549.844L1084.37 555.687L1072.6 540.776L1085.58 564.453Z" fill="#09FFF1"/>
<path d="M1089.8 564.954L1092.41 560.42L1104.98 583.09L1112.72 571L1091.41 550.446L1088.49 556.289L1076.83 541.277L1089.8 564.954Z" fill="#CC008E"/>
<path d="M315.67 536.643L303.504 568.481L305.112 574.224L315.67 536.643Z" fill="#CC008E"/>
<path d="M317.883 533.419L305.717 565.257L307.326 570.9L317.883 533.419Z" fill="#09FFF1"/>
<path d="M826.567 554.981L837.125 537.249L836.823 533.621L826.567 554.981Z" fill="#CC008E"/>
<path d="M824.976 556.695L835.534 538.963L835.132 535.436L824.976 556.695Z" fill="#09FFF1"/>
<path d="M885.466 563.452C885.466 564.964 884.259 566.173 882.751 566.173C881.243 566.173 880.036 564.964 880.036 563.452C880.036 561.941 881.243 560.732 882.751 560.732C884.259 560.732 885.466 561.941 885.466 563.452Z" fill="#09FFF1"/>
<path d="M1161.3 557.911C1161.3 558.919 1160.5 559.725 1159.49 559.725C1158.49 559.725 1157.68 558.919 1157.68 557.911C1157.68 556.904 1158.49 556.098 1159.49 556.098C1160.5 556.098 1161.3 556.904 1161.3 557.911Z" fill="#09FFF1"/>
<path d="M1144.77 576.449C1144.77 577.456 1143.97 578.262 1142.96 578.262C1141.96 578.262 1141.15 577.456 1141.15 576.449C1141.15 575.441 1141.96 574.635 1142.96 574.635C1143.97 574.635 1144.77 575.441 1144.77 576.449Z" fill="#09FFF1"/>
<path d="M102.125 570.301C103.791 570.301 105.141 568.948 105.141 567.278C105.141 565.609 103.791 564.256 102.125 564.256C100.459 564.256 99.1082 565.609 99.1082 567.278C99.1082 568.948 100.459 570.301 102.125 570.301Z" fill="#FF3ABC"/>
<path d="M341.037 573.323C342.703 573.323 344.053 571.97 344.053 570.301C344.053 568.631 342.703 567.278 341.037 567.278C339.371 567.278 338.021 568.631 338.021 570.301C338.021 571.97 339.371 573.323 341.037 573.323Z" fill="#FF3ABC"/>
<path d="M71.4042 506.72C71.4042 508.232 70.1976 509.441 68.6894 509.441C67.1812 509.441 65.9746 508.232 65.9746 506.72C65.9746 505.209 67.1812 504 68.6894 504C70.1976 504.101 71.4042 505.31 71.4042 506.72Z" fill="#09FFF1"/>
<path d="M1021.02 569.291C1021.02 570.399 1020.11 571.306 1019 571.306C1017.9 571.306 1016.99 570.399 1016.99 569.291C1016.99 568.182 1017.9 567.276 1019 567.276C1020.11 567.175 1021.02 568.082 1021.02 569.291Z" fill="#09FFF1"/>
<path d="M276.556 295.588C281.198 295.588 285.249 296.473 288.71 298.243C292.172 299.974 294.827 302.432 296.675 305.618C298.563 308.765 299.507 312.403 299.507 316.533C299.507 319.876 298.917 322.984 297.737 325.855C296.597 328.726 294.886 331.027 292.604 332.758C290.362 334.449 287.688 335.295 284.58 335.295C282.496 335.295 280.765 334.882 279.388 334.056C278.051 333.23 277.146 332.07 276.674 330.575C275.573 332.109 274.157 333.309 272.426 334.174C270.696 335 268.808 335.413 266.762 335.413C263.852 335.413 261.551 334.548 259.859 332.817C258.207 331.047 257.381 328.648 257.381 325.619C257.381 322.748 257.971 320.053 259.151 317.536C260.331 314.979 261.964 312.934 264.048 311.4C266.133 309.866 268.473 309.099 271.069 309.099C274.373 309.099 276.615 310.279 277.795 312.639L278.326 309.512H286.468L283.872 324.321C283.754 325.029 283.695 325.658 283.695 326.209C283.695 327.94 284.462 328.805 285.996 328.805C287.884 328.805 289.32 327.605 290.303 325.206C291.326 322.767 291.837 319.975 291.837 316.828C291.837 312.305 290.402 308.765 287.53 306.208C284.698 303.651 280.706 302.373 275.553 302.373C271.148 302.373 267.136 303.435 263.517 305.559C259.938 307.683 257.126 310.594 255.08 314.291C253.035 317.949 252.012 321.981 252.012 326.386C252.012 331.145 253.389 334.843 256.142 337.478C258.935 340.113 262.829 341.431 267.824 341.431C271.718 341.431 275.199 340.723 278.267 339.307L279.86 345.738C276.006 347.429 271.679 348.275 266.88 348.275C262.396 348.275 258.443 347.41 255.021 345.679C251.639 343.948 249.023 341.49 247.174 338.304C245.326 335.118 244.401 331.401 244.401 327.153C244.401 321.214 245.798 315.845 248.59 311.046C251.383 306.208 255.218 302.432 260.095 299.718C265.012 296.965 270.499 295.588 276.556 295.588ZM270.066 328.156C271.168 328.156 272.19 327.822 273.134 327.153C274.118 326.484 274.885 325.599 275.435 324.498C276.025 323.357 276.32 322.138 276.32 320.84C276.32 319.503 275.947 318.421 275.199 317.595C274.452 316.73 273.429 316.297 272.131 316.297C270.401 316.297 268.965 317.044 267.824 318.539C266.684 320.034 266.113 321.804 266.113 323.849C266.113 325.147 266.448 326.189 267.116 326.976C267.785 327.763 268.768 328.156 270.066 328.156ZM339.986 302.078V335H329.897V330.516C328.874 331.971 327.478 333.151 325.708 334.056C323.977 334.921 322.05 335.354 319.926 335.354C317.409 335.354 315.186 334.803 313.259 333.702C311.332 332.561 309.837 330.929 308.775 328.805C307.713 326.681 307.182 324.183 307.182 321.312V302.078H317.212V319.955C317.212 322.158 317.782 323.869 318.923 325.088C320.064 326.307 321.598 326.917 323.525 326.917C325.492 326.917 327.045 326.307 328.186 325.088C329.327 323.869 329.897 322.158 329.897 319.955V302.078H339.986ZM360.626 335.472C357.754 335.472 355.198 334.98 352.956 333.997C350.714 333.014 348.944 331.676 347.646 329.985C346.348 328.254 345.62 326.327 345.463 324.203H355.434C355.552 325.344 356.083 326.268 357.027 326.976C357.971 327.684 359.131 328.038 360.508 328.038C361.766 328.038 362.73 327.802 363.399 327.33C364.107 326.819 364.461 326.17 364.461 325.383C364.461 324.439 363.969 323.751 362.986 323.318C362.002 322.846 360.409 322.335 358.207 321.784C355.847 321.233 353.88 320.663 352.307 320.073C350.733 319.444 349.376 318.48 348.236 317.182C347.095 315.845 346.525 314.055 346.525 311.813C346.525 309.925 347.036 308.214 348.059 306.68C349.121 305.107 350.655 303.868 352.661 302.963C354.706 302.058 357.125 301.606 359.918 301.606C364.048 301.606 367.293 302.629 369.653 304.674C372.052 306.719 373.429 309.433 373.783 312.816H364.461C364.303 311.675 363.792 310.771 362.927 310.102C362.101 309.433 360.999 309.099 359.623 309.099C358.443 309.099 357.538 309.335 356.909 309.807C356.279 310.24 355.965 310.849 355.965 311.636C355.965 312.58 356.456 313.288 357.44 313.76C358.462 314.232 360.036 314.704 362.16 315.176C364.598 315.805 366.585 316.435 368.119 317.064C369.653 317.654 370.99 318.637 372.131 320.014C373.311 321.351 373.92 323.161 373.96 325.442C373.96 327.369 373.409 329.1 372.308 330.634C371.246 332.129 369.692 333.309 367.647 334.174C365.641 335.039 363.3 335.472 360.626 335.472ZM411.166 318.008C411.166 318.952 411.107 319.935 410.989 320.958H388.156C388.313 323.003 388.962 324.577 390.103 325.678C391.283 326.74 392.719 327.271 394.41 327.271C396.927 327.271 398.678 326.209 399.661 324.085H410.399C409.848 326.248 408.845 328.195 407.39 329.926C405.974 331.657 404.184 333.014 402.021 333.997C399.858 334.98 397.439 335.472 394.764 335.472C391.539 335.472 388.667 334.784 386.15 333.407C383.633 332.03 381.666 330.064 380.25 327.507C378.834 324.95 378.126 321.961 378.126 318.539C378.126 315.117 378.814 312.128 380.191 309.571C381.607 307.014 383.574 305.048 386.091 303.671C388.608 302.294 391.499 301.606 394.764 301.606C397.95 301.606 400.782 302.275 403.26 303.612C405.738 304.949 407.665 306.857 409.042 309.335C410.458 311.813 411.166 314.704 411.166 318.008ZM400.841 315.353C400.841 313.622 400.251 312.246 399.071 311.223C397.891 310.2 396.416 309.689 394.646 309.689C392.955 309.689 391.519 310.181 390.339 311.164C389.198 312.147 388.49 313.544 388.215 315.353H400.841ZM463.748 302.078L454.839 335H443.688L438.496 313.642L433.127 335H422.035L413.067 302.078H423.156L427.817 325.619L433.363 302.078H444.042L449.647 325.501L454.249 302.078H463.748ZM498.629 318.008C498.629 318.952 498.57 319.935 498.452 320.958H475.619C475.776 323.003 476.425 324.577 477.566 325.678C478.746 326.74 480.182 327.271 481.873 327.271C484.39 327.271 486.141 326.209 487.124 324.085H497.862C497.311 326.248 496.308 328.195 494.853 329.926C493.437 331.657 491.647 333.014 489.484 333.997C487.321 334.98 484.902 335.472 482.227 335.472C479.002 335.472 476.13 334.784 473.613 333.407C471.096 332.03 469.129 330.064 467.713 327.507C466.297 324.95 465.589 321.961 465.589 318.539C465.589 315.117 466.277 312.128 467.654 309.571C469.07 307.014 471.037 305.048 473.554 303.671C476.071 302.294 478.962 301.606 482.227 301.606C485.413 301.606 488.245 302.275 490.723 303.612C493.201 304.949 495.128 306.857 496.505 309.335C497.921 311.813 498.629 314.704 498.629 318.008ZM488.304 315.353C488.304 313.622 487.714 312.246 486.534 311.223C485.354 310.2 483.879 309.689 482.109 309.689C480.418 309.689 478.982 310.181 477.802 311.164C476.661 312.147 475.953 313.544 475.678 315.353H488.304ZM514.04 306.739C514.984 305.205 516.341 303.966 518.111 303.022C519.881 302.078 521.907 301.606 524.188 301.606C526.902 301.606 529.361 302.294 531.563 303.671C533.766 305.048 535.497 307.014 536.755 309.571C538.053 312.128 538.702 315.097 538.702 318.48C538.702 321.863 538.053 324.852 536.755 327.448C535.497 330.005 533.766 331.991 531.563 333.407C529.361 334.784 526.902 335.472 524.188 335.472C521.868 335.472 519.842 335.02 518.111 334.115C516.381 333.171 515.024 331.932 514.04 330.398V335H503.951V291.34H514.04V306.739ZM528.436 318.48C528.436 315.963 527.728 313.996 526.312 312.58C524.936 311.125 523.225 310.397 521.179 310.397C519.173 310.397 517.462 311.125 516.046 312.58C514.67 314.035 513.981 316.022 513.981 318.539C513.981 321.056 514.67 323.043 516.046 324.498C517.462 325.953 519.173 326.681 521.179 326.681C523.185 326.681 524.896 325.953 526.312 324.498C527.728 323.003 528.436 320.997 528.436 318.48ZM566.474 278.95L550.662 346.033H540.927L556.739 278.95H566.474ZM603.239 302.078V335H593.15V330.516C592.127 331.971 590.731 333.151 588.961 334.056C587.23 334.921 585.303 335.354 583.179 335.354C580.661 335.354 578.439 334.803 576.512 333.702C574.584 332.561 573.09 330.929 572.028 328.805C570.966 326.681 570.435 324.183 570.435 321.312V302.078H580.465V319.955C580.465 322.158 581.035 323.869 582.176 325.088C583.316 326.307 584.85 326.917 586.778 326.917C588.744 326.917 590.298 326.307 591.439 325.088C592.579 323.869 593.15 322.158 593.15 319.955V302.078H603.239ZM623.879 335.472C621.007 335.472 618.451 334.98 616.209 333.997C613.967 333.014 612.197 331.676 610.899 329.985C609.601 328.254 608.873 326.327 608.716 324.203H618.687C618.805 325.344 619.336 326.268 620.28 326.976C621.224 327.684 622.384 328.038 623.761 328.038C625.019 328.038 625.983 327.802 626.652 327.33C627.36 326.819 627.714 326.17 627.714 325.383C627.714 324.439 627.222 323.751 626.239 323.318C625.255 322.846 623.662 322.335 621.46 321.784C619.1 321.233 617.133 320.663 615.56 320.073C613.986 319.444 612.629 318.48 611.489 317.182C610.348 315.845 609.778 314.055 609.778 311.813C609.778 309.925 610.289 308.214 611.312 306.68C612.374 305.107 613.908 303.868 615.914 302.963C617.959 302.058 620.378 301.606 623.171 301.606C627.301 301.606 630.546 302.629 632.906 304.674C635.305 306.719 636.682 309.433 637.036 312.816H627.714C627.556 311.675 627.045 310.771 626.18 310.102C625.354 309.433 624.252 309.099 622.876 309.099C621.696 309.099 620.791 309.335 620.162 309.807C619.532 310.24 619.218 310.849 619.218 311.636C619.218 312.58 619.709 313.288 620.693 313.76C621.715 314.232 623.289 314.704 625.413 315.176C627.851 315.805 629.838 316.435 631.372 317.064C632.906 317.654 634.243 318.637 635.384 320.014C636.564 321.351 637.173 323.161 637.213 325.442C637.213 327.369 636.662 329.1 635.561 330.634C634.499 332.129 632.945 333.309 630.9 334.174C628.894 335.039 626.553 335.472 623.879 335.472ZM674.419 318.008C674.419 318.952 674.36 319.935 674.242 320.958H651.409C651.566 323.003 652.215 324.577 653.356 325.678C654.536 326.74 655.972 327.271 657.663 327.271C660.18 327.271 661.931 326.209 662.914 324.085H673.652C673.101 326.248 672.098 328.195 670.643 329.926C669.227 331.657 667.437 333.014 665.274 333.997C663.111 334.98 660.692 335.472 658.017 335.472C654.792 335.472 651.92 334.784 649.403 333.407C646.886 332.03 644.919 330.064 643.503 327.507C642.087 324.95 641.379 321.961 641.379 318.539C641.379 315.117 642.067 312.128 643.444 309.571C644.86 307.014 646.827 305.048 649.344 303.671C651.861 302.294 654.752 301.606 658.017 301.606C661.203 301.606 664.035 302.275 666.513 303.612C668.991 304.949 670.918 306.857 672.295 309.335C673.711 311.813 674.419 314.704 674.419 318.008ZM664.094 315.353C664.094 313.622 663.504 312.246 662.324 311.223C661.144 310.2 659.669 309.689 657.899 309.689C656.208 309.689 654.772 310.181 653.592 311.164C652.451 312.147 651.743 313.544 651.468 315.353H664.094ZM705.111 310.102V318.48H679.151V310.102H705.111ZM730.486 310.456H725.058V335H714.969V310.456H711.311V302.078H714.969V301.134C714.969 297.083 716.129 294.015 718.45 291.93C720.771 289.806 724.173 288.744 728.657 288.744C729.404 288.744 729.955 288.764 730.309 288.803V297.358C728.382 297.24 727.025 297.515 726.238 298.184C725.451 298.853 725.058 300.052 725.058 301.783V302.078H730.486V310.456ZM740.301 298.656C738.531 298.656 737.076 298.145 735.935 297.122C734.834 296.06 734.283 294.762 734.283 293.228C734.283 291.655 734.834 290.357 735.935 289.334C737.076 288.272 738.531 287.741 740.301 287.741C742.032 287.741 743.448 288.272 744.549 289.334C745.69 290.357 746.26 291.655 746.26 293.228C746.26 294.762 745.69 296.06 744.549 297.122C743.448 298.145 742.032 298.656 740.301 298.656ZM745.316 302.078V335H735.227V302.078H745.316ZM762.716 307.565C763.896 305.756 765.371 304.34 767.141 303.317C768.911 302.255 770.878 301.724 773.041 301.724V312.403H770.268C767.751 312.403 765.863 312.954 764.604 314.055C763.346 315.117 762.716 317.005 762.716 319.719V335H752.627V302.078H762.716V307.565ZM808.898 318.008C808.898 318.952 808.839 319.935 808.721 320.958H785.888C786.045 323.003 786.694 324.577 787.835 325.678C789.015 326.74 790.45 327.271 792.142 327.271C794.659 327.271 796.409 326.209 797.393 324.085H808.131C807.58 326.248 806.577 328.195 805.122 329.926C803.706 331.657 801.916 333.014 799.753 333.997C797.589 334.98 795.17 335.472 792.496 335.472C789.27 335.472 786.399 334.784 783.882 333.407C781.364 332.03 779.398 330.064 777.982 327.507C776.566 324.95 775.858 321.961 775.858 318.539C775.858 315.117 776.546 312.128 777.923 309.571C779.339 307.014 781.305 305.048 783.823 303.671C786.34 302.294 789.231 301.606 792.496 301.606C795.682 301.606 798.514 302.275 800.992 303.612C803.47 304.949 805.397 306.857 806.774 309.335C808.19 311.813 808.898 314.704 808.898 318.008ZM798.573 315.353C798.573 313.622 797.983 312.246 796.803 311.223C795.623 310.2 794.148 309.689 792.378 309.689C790.686 309.689 789.251 310.181 788.071 311.164C786.93 312.147 786.222 313.544 785.947 315.353H798.573ZM824.309 306.739C825.253 305.205 826.61 303.966 828.38 303.022C830.15 302.078 832.176 301.606 834.457 301.606C837.171 301.606 839.629 302.294 841.832 303.671C844.035 305.048 845.765 307.014 847.024 309.571C848.322 312.128 848.971 315.097 848.971 318.48C848.971 321.863 848.322 324.852 847.024 327.448C845.765 330.005 844.035 331.991 841.832 333.407C839.629 334.784 837.171 335.472 834.457 335.472C832.136 335.472 830.111 335.02 828.38 334.115C826.649 333.171 825.292 331.932 824.309 330.398V335H814.22V291.34H824.309V306.739ZM838.705 318.48C838.705 315.963 837.997 313.996 836.581 312.58C835.204 311.125 833.493 310.397 831.448 310.397C829.442 310.397 827.731 311.125 826.315 312.58C824.938 314.035 824.25 316.022 824.25 318.539C824.25 321.056 824.938 323.043 826.315 324.498C827.731 325.953 829.442 326.681 831.448 326.681C833.454 326.681 835.165 325.953 836.581 324.498C837.997 323.003 838.705 320.997 838.705 318.48ZM852.258 318.48C852.258 315.097 852.887 312.128 854.146 309.571C855.444 307.014 857.194 305.048 859.397 303.671C861.6 302.294 864.058 301.606 866.772 301.606C869.093 301.606 871.118 302.078 872.849 303.022C874.619 303.966 875.976 305.205 876.92 306.739V302.078H887.009V335H876.92V330.339C875.937 331.873 874.56 333.112 872.79 334.056C871.059 335 869.034 335.472 866.713 335.472C864.038 335.472 861.6 334.784 859.397 333.407C857.194 331.991 855.444 330.005 854.146 327.448C852.887 324.852 852.258 321.863 852.258 318.48ZM876.92 318.539C876.92 316.022 876.212 314.035 874.796 312.58C873.419 311.125 871.728 310.397 869.722 310.397C867.716 310.397 866.005 311.125 864.589 312.58C863.212 313.996 862.524 315.963 862.524 318.48C862.524 320.997 863.212 323.003 864.589 324.498C866.005 325.953 867.716 326.681 869.722 326.681C871.728 326.681 873.419 325.953 874.796 324.498C876.212 323.043 876.92 321.056 876.92 318.539ZM907.701 335.472C904.83 335.472 902.273 334.98 900.031 333.997C897.789 333.014 896.019 331.676 894.721 329.985C893.423 328.254 892.695 326.327 892.538 324.203H902.509C902.627 325.344 903.158 326.268 904.102 326.976C905.046 327.684 906.206 328.038 907.583 328.038C908.842 328.038 909.805 327.802 910.474 327.33C911.182 326.819 911.536 326.17 911.536 325.383C911.536 324.439 911.044 323.751 910.061 323.318C909.078 322.846 907.485 322.335 905.282 321.784C902.922 321.233 900.955 320.663 899.382 320.073C897.809 319.444 896.452 318.48 895.311 317.182C894.17 315.845 893.6 314.055 893.6 311.813C893.6 309.925 894.111 308.214 895.134 306.68C896.196 305.107 897.73 303.868 899.736 302.963C901.781 302.058 904.2 301.606 906.993 301.606C911.123 301.606 914.368 302.629 916.728 304.674C919.127 306.719 920.504 309.433 920.858 312.816H911.536C911.379 311.675 910.867 310.771 910.002 310.102C909.176 309.433 908.075 309.099 906.698 309.099C905.518 309.099 904.613 309.335 903.984 309.807C903.355 310.24 903.04 310.849 903.04 311.636C903.04 312.58 903.532 313.288 904.515 313.76C905.538 314.232 907.111 314.704 909.235 315.176C911.674 315.805 913.66 316.435 915.194 317.064C916.728 317.654 918.065 318.637 919.206 320.014C920.386 321.351 920.996 323.161 921.035 325.442C921.035 327.369 920.484 329.1 919.383 330.634C918.321 332.129 916.767 333.309 914.722 334.174C912.716 335.039 910.376 335.472 907.701 335.472ZM958.241 318.008C958.241 318.952 958.182 319.935 958.064 320.958H935.231C935.389 323.003 936.038 324.577 937.178 325.678C938.358 326.74 939.794 327.271 941.485 327.271C944.003 327.271 945.753 326.209 946.736 324.085H957.474C956.924 326.248 955.921 328.195 954.465 329.926C953.049 331.657 951.26 333.014 949.096 333.997C946.933 334.98 944.514 335.472 941.839 335.472C938.614 335.472 935.743 334.784 933.225 333.407C930.708 332.03 928.741 330.064 927.325 327.507C925.909 324.95 925.201 321.961 925.201 318.539C925.201 315.117 925.89 312.128 927.266 309.571C928.682 307.014 930.649 305.048 933.166 303.671C935.684 302.294 938.575 301.606 941.839 301.606C945.025 301.606 947.857 302.275 950.335 303.612C952.813 304.949 954.741 306.857 956.117 309.335C957.533 311.813 958.241 314.704 958.241 318.008ZM947.916 315.353C947.916 313.622 947.326 312.246 946.146 311.223C944.966 310.2 943.491 309.689 941.721 309.689C940.03 309.689 938.594 310.181 937.414 311.164C936.274 312.147 935.566 313.544 935.29 315.353H947.916Z" fill="url(#paint0_linear_664_407)"/>
<defs>
<linearGradient id="paint0_linear_664_407" x1="245.669" y1="266.095" x2="794.936" y2="642.188" gradientUnits="userSpaceOnUse">
<stop stop-color="#00DFC4"/>
<stop offset="1" stop-color="#32DAFF"/>
</linearGradient>
</defs>
</svg>
