<svg width="485" height="148" viewBox="0 0 485 148" fill="none" xmlns="http://www.w3.org/2000/svg">
<path d="M23.0032 109.992C17.3846 109.992 12.9889 108.438 9.81602 105.331C6.70926 102.159 5.15589 97.5315 5.15589 91.4502V62.0021H18.5414V91.1527C18.5414 94.3256 19.3015 96.6391 20.8219 98.0933C22.3422 99.4814 24.6227 100.176 27.6633 100.176C29.9769 100.176 32.0921 99.7128 34.009 98.7874C35.9921 97.862 37.6776 96.7052 39.0658 95.3171V62.0021H52.4512V109H40.0573L39.5615 104.538C37.5785 106.125 35.2319 107.447 32.5217 108.504C29.8777 109.496 26.7049 109.992 23.0032 109.992ZM80.4035 109.992C76.9001 109.992 73.562 109.727 70.3892 109.198C67.2163 108.736 64.6714 108.141 62.7545 107.414V96.3086C65.068 97.234 67.679 97.9611 70.5875 98.4899C73.4959 98.9526 76.173 99.184 78.6188 99.184C81.9238 99.184 84.2374 98.9857 85.5594 98.5891C86.9475 98.1925 87.6416 97.3001 87.6416 95.912C87.6416 94.3256 86.5839 93.1688 84.4687 92.4417C82.4196 91.7146 79.3459 90.69 75.2476 89.368C70.951 87.9137 67.646 86.1621 65.3324 84.1129C63.0189 82.0638 61.8621 79.0231 61.8621 74.991C61.8621 70.4961 63.4816 67.0588 66.7206 64.6792C70.0256 62.2335 75.3137 61.0106 82.5848 61.0106C85.4933 61.0106 88.2365 61.2419 90.8144 61.7046C93.3924 62.1013 95.5737 62.597 97.3584 63.1919V74.1978C95.5737 73.3384 93.5246 72.7105 91.211 72.3139C88.8975 71.8512 86.7492 71.6198 84.7662 71.6198C81.9238 71.6198 79.6433 71.8181 77.9247 72.2147C76.2722 72.6113 75.4459 73.4706 75.4459 74.7927C75.4459 76.2469 76.3383 77.2715 78.123 77.8664C79.9738 78.4613 82.8162 79.3536 86.65 80.5435C90.4178 81.6672 93.3593 82.8901 95.4745 84.2121C97.5898 85.5341 99.0771 87.1205 99.9364 88.9714C100.796 90.7561 101.225 93.0035 101.225 95.7137C101.225 105.232 94.2847 109.992 80.4035 109.992ZM133.554 109.992C125.424 109.992 118.979 107.975 114.22 103.943C109.46 99.845 107.081 93.6645 107.081 85.4019C107.081 77.9325 109.064 72.0164 113.03 67.6538C117.062 63.225 123.044 61.0106 130.976 61.0106C138.247 61.0106 143.8 62.9275 147.634 66.7614C151.534 70.5291 153.484 75.4867 153.484 81.6341V90.1612H119.475C120.202 93.9289 121.92 96.5069 124.631 97.895C127.407 99.2831 131.307 99.9772 136.33 99.9772C138.842 99.9772 141.387 99.7458 143.965 99.2831C146.609 98.8204 148.857 98.2255 150.707 97.4984V107.017C148.526 108.008 145.981 108.736 143.073 109.198C140.164 109.727 136.991 109.992 133.554 109.992ZM119.475 81.9316H141.784V79.3536C141.784 76.6435 140.991 74.5283 139.404 73.0079C137.818 71.4215 135.141 70.6283 131.373 70.6283C126.944 70.6283 123.837 71.5207 122.053 73.3054C120.334 75.0901 119.475 77.9655 119.475 81.9316ZM168.76 109L156.366 62.0021H169.752L176.89 92.5408L184.723 68.0504V62.0021H194.936L203.86 92.5408L210.8 62.0021H224.087L211.792 109H199.497L190.474 81.535L181.253 109H168.76ZM253.427 109.992C245.297 109.992 238.852 107.975 234.092 103.943C229.333 99.845 226.954 93.6645 226.954 85.4019C226.954 77.9325 228.937 72.0164 232.903 67.6538C236.935 63.225 242.917 61.0106 250.849 61.0106C258.12 61.0106 263.673 62.9275 267.507 66.7614C271.407 70.5291 273.357 75.4867 273.357 81.6341V90.1612H239.347C240.075 93.9289 241.793 96.5069 244.503 97.895C247.28 99.2831 251.18 99.9772 256.203 99.9772C258.715 99.9772 261.26 99.7458 263.838 99.2831C266.482 98.8204 268.729 98.2255 270.58 97.4984V107.017C268.399 108.008 265.854 108.736 262.946 109.198C260.037 109.727 256.864 109.992 253.427 109.992ZM239.347 81.9316H261.657V79.3536C261.657 76.6435 260.863 74.5283 259.277 73.0079C257.691 71.4215 255.013 70.6283 251.246 70.6283C246.817 70.6283 243.71 71.5207 241.925 73.3054C240.207 75.0901 239.347 77.9655 239.347 81.9316ZM310.339 109.992C307.034 109.992 304.159 109.562 301.713 108.703C299.267 107.777 297.02 106.422 294.971 104.637L294.277 109H282.676V42.1718H296.061V64.58C297.978 63.3902 300.127 62.4979 302.506 61.903C304.886 61.308 307.365 61.0106 309.943 61.0106C316.685 61.0106 322.006 62.9275 325.906 66.7614C329.872 70.5291 331.855 76.6435 331.855 85.1044C331.855 93.5654 329.905 99.845 326.005 103.943C322.171 107.975 316.949 109.992 310.339 109.992ZM306.572 100.176C310.868 100.176 313.876 98.9196 315.594 96.4077C317.379 93.8959 318.271 90.1281 318.271 85.1044C318.271 79.8825 317.313 76.2138 315.396 74.0986C313.545 71.9173 310.571 70.8266 306.472 70.8266C304.423 70.8266 302.473 71.1241 300.622 71.719C298.838 72.3139 297.317 73.1732 296.061 74.2969V95.912C297.383 97.3001 298.937 98.3577 300.722 99.0848C302.572 99.8119 304.522 100.176 306.572 100.176Z" fill="url(#paint0_linear)"/>
<rect x="362.377" y="12.9836" width="122.033" height="122.033" rx="61.0164" fill="#0A1930"/>
<circle r="23.5099" transform="matrix(1 0 0 -1 423.657 74.095)" fill="url(#paint1_linear)"/>
<defs>
<linearGradient id="paint0_linear" x1="168" y1="0" x2="168" y2="148.251" gradientUnits="userSpaceOnUse">
<stop stop-color="white"/>
<stop offset="1" stop-color="#00FFF0"/>
</linearGradient>
<linearGradient id="paint1_linear" x1="23.5099" y1="0" x2="23.5099" y2="47.0994" gradientUnits="userSpaceOnUse">
<stop stop-color="white"/>
<stop offset="1" stop-color="#00FFF0"/>
</linearGradient>
</defs>
</svg>
