<svg width="4604" height="361" viewBox="0 0 4604 361" fill="none" xmlns="http://www.w3.org/2000/svg">
<path d="M1642.41 108.07C1630.68 108.07 1621.17 117.598 1621.17 129.352C1621.17 141.105 1630.68 150.634 1642.41 150.634C1654.14 150.634 1663.65 141.105 1663.65 129.352C1663.65 117.598 1654.14 108.07 1642.41 108.07Z" fill="#FF3ABC"/>
<path d="M2929.14 194.414C2929.14 197.279 2926.69 199.735 2923.83 199.735C2920.97 199.735 2918.52 197.279 2918.52 194.414C2918.52 191.548 2920.97 189.093 2923.83 189.093C2926.69 189.093 2929.14 191.548 2929.14 194.414Z" fill="#09FFF1"/>
<path d="M2348.93 80.2499C2348.93 83.115 2346.48 85.5708 2343.62 85.5708C2340.76 85.5708 2338.31 83.115 2338.31 80.2499C2338.31 77.3847 2340.76 74.9289 2343.62 74.9289C2346.89 74.9289 2348.93 77.3847 2348.93 80.2499Z" fill="#09FFF1"/>
<path d="M281.551 326.605L134.516 251.3L179.035 216.921L281.551 326.605Z" fill="#09FFF1"/>
<path d="M282.675 334.37L135.232 259.065L179.751 224.686L282.675 334.37Z" fill="#CC008E"/>
<path d="M4046 212.853C4046 225.131 4036.19 234.953 4023.94 234.953C4011.69 234.953 4001.89 225.131 4001.89 212.853C4001.89 200.575 4011.69 190.752 4023.94 190.752C4036.19 190.752 4046 200.575 4046 212.853Z" fill="#09FFF1"/>
<path d="M4040.38 212.853C4040.38 225.131 4030.57 234.953 4018.32 234.953C4006.07 234.953 3996.27 225.131 3996.27 212.853C3996.27 200.575 4006.07 190.752 4018.32 190.752C4030.57 190.752 4040.38 200.575 4040.38 212.853Z" fill="#CC008E"/>
<path d="M3868.71 85.1558C3868.71 90.067 3864.62 94.1597 3859.72 94.1597C3854.82 94.1597 3850.74 90.067 3850.74 85.1558C3850.74 80.2446 3854.82 76.1519 3859.72 76.1519C3864.62 76.1519 3868.71 80.2446 3868.71 85.1558Z" fill="#09FFF1"/>
<path d="M3131.95 159.668C3129.8 165.135 3132.48 171.315 3137.94 173.47C3143.39 175.626 3149.56 172.941 3151.71 167.474C3153.86 162.007 3151.18 155.827 3145.73 153.672C3140.27 151.516 3134.1 154.201 3131.95 159.668Z" fill="#09FFF1"/>
<path d="M4584.4 299.591C4573.57 299.591 4564.79 308.386 4564.79 319.236C4564.79 330.085 4573.57 338.88 4584.4 338.88C4595.22 338.88 4604 330.085 4604 319.236C4604 308.386 4595.22 299.591 4584.4 299.591Z" fill="#09FFF1"/>
<path d="M1260.49 29.082C1256.72 45.1435 1266.65 61.2272 1282.68 65.0058C1298.71 68.7844 1314.76 58.827 1318.53 42.7655C1322.3 26.704 1312.37 10.6206 1296.34 6.84199C1280.31 3.0634 1264.26 13.0206 1260.49 29.082Z" fill="#09FFF1"/>
<path d="M1407.96 54.0574C1407.96 57.3315 1405.1 60.1964 1401.84 60.1964C1398.57 60.1964 1395.71 57.3315 1395.71 54.0574C1395.71 50.7832 1398.57 47.9183 1401.84 47.9183C1405.1 47.509 1407.96 50.3739 1407.96 54.0574Z" fill="#09FFF1"/>
<path d="M945.886 70.537C944.275 74.5164 946.189 79.0511 950.16 80.6654C954.131 82.2798 958.656 80.3624 960.267 76.383C961.879 72.4036 959.965 67.8689 955.994 66.2546C952.023 64.6402 947.497 66.5576 945.886 70.537Z" fill="#CC008E"/>
<path d="M95.2785 315.574C98.1376 329.08 89.5607 342.995 76.0825 345.86C62.6043 348.725 48.7176 340.13 45.8585 326.624C42.9995 313.119 51.5764 299.203 65.0546 296.338C78.5328 293.064 92.0111 301.659 95.2785 315.574Z" fill="#09FFF1"/>
<path d="M34.6076 311.155C27.3786 323.152 31.2243 338.75 43.1971 345.994C55.17 353.238 70.736 349.384 77.965 337.387C85.194 325.39 81.3483 309.792 69.3755 302.548C57.4026 295.304 41.8366 299.157 34.6076 311.155Z" fill="#CC008E"/>
<path d="M2632.58 89.6629C2620.39 89.6629 2610.52 100.107 2610.52 112.991C2610.52 125.875 2620.39 136.319 2632.58 136.319C2644.76 136.319 2654.63 125.875 2654.63 112.991C2654.63 100.107 2644.76 89.6629 2632.58 89.6629Z" fill="#09FFF1"/>
<path d="M2619.93 89.6629C2607.74 89.6629 2597.87 100.107 2597.87 112.991C2597.87 125.875 2607.74 136.319 2619.93 136.319C2632.11 136.319 2641.98 125.875 2641.98 112.991C2641.98 100.107 2632.11 89.6629 2619.93 89.6629Z" fill="#CC008E"/>
<path d="M700.579 182.949L698.946 53.2112L813.714 128.516L700.579 182.949Z" fill="#CC008E"/>
<path d="M3859.15 187.468L3840.77 274.642L3775.42 207.112L3859.15 187.468Z" fill="#CC008E"/>
<path d="M3850.44 183.781L3831.65 270.955L3766.3 203.426L3850.44 183.781Z" fill="#09FFF1"/>
<path d="M3179.67 212.439L3218.87 173.968L3229.49 231.266L3179.67 212.439Z" fill="#CC008E"/>
<path d="M3183.04 217.342L3222.25 178.871L3232.87 236.168L3183.04 217.342Z" fill="#09FFF1"/>
<path d="M4486.66 190.736L4479.71 172.319L4424.17 241.076L4418.86 220.203L4350.65 299.192L4426.62 176.002L4434.38 198.921L4488.29 123.616L4496.05 148.582L4569.16 73.2762L4486.66 190.736Z" fill="#09FFF1"/>
<path d="M4485.53 174.382L4479 155.965L4423.04 224.722L4417.73 203.85L4349.53 282.838L4425.9 159.649L4433.66 182.568L4487.57 107.262L4495.33 132.228L4568.04 56.9223L4485.53 174.382Z" fill="#CC008E"/>
<path d="M1923.9 25.3778C1920.07 25.3778 1916.96 28.4928 1916.96 32.3354C1916.96 36.1779 1920.07 39.293 1923.9 39.293C1927.74 39.293 1930.85 36.1779 1930.85 32.3354C1930.85 28.4928 1927.74 25.3778 1923.9 25.3778Z" fill="#CC008E"/>
<path d="M2924.16 67.1453C2920.32 67.1453 2917.22 70.2604 2917.22 74.103C2917.22 77.9455 2920.32 81.0605 2924.16 81.0605C2927.99 81.0605 2931.1 77.9455 2931.1 74.103C2931.1 70.2604 2927.99 67.1453 2924.16 67.1453Z" fill="#CC008E"/>
<path d="M416.262 74.8966C417.079 78.58 414.629 82.6727 410.953 83.4912C407.277 84.3097 403.193 81.8542 402.376 78.1708C401.559 74.4874 404.009 70.3947 407.685 69.5761C411.361 68.7576 415.445 71.2132 416.262 74.8966Z" fill="#09FFF1"/>
<path d="M135.008 155.529C135.825 159.212 133.374 163.305 129.698 164.123C126.022 164.942 121.938 162.486 121.121 158.803C120.304 155.119 122.754 151.027 126.43 150.208C130.106 149.39 134.191 151.845 135.008 155.529Z" fill="#CC008E"/>
<path d="M308.103 115.44L297.076 133.857L246.022 41.7713L214.981 90.8835L301.568 174.783L313.004 151.046L360.791 211.618L308.103 115.44Z" fill="#09FFF1"/>
<path d="M290.957 113.401L280.338 131.818L229.284 39.7326L197.835 88.8448L284.422 172.335L296.267 148.598L343.645 209.579L290.957 113.401Z" fill="#CC008E"/>
<path d="M3435.48 228.403L3484.9 99.0743L3478.36 75.7461L3435.48 228.403Z" fill="#CC008E"/>
<path d="M3426.49 241.502L3475.91 112.174L3469.37 89.2546L3426.49 241.502Z" fill="#09FFF1"/>
<path d="M1360.2 153.914L1317.32 225.945L1318.54 240.678L1360.2 153.914Z" fill="#CC008E"/>
<path d="M1366.67 146.95L1323.78 218.981L1325.41 233.306L1366.67 146.95Z" fill="#09FFF1"/>
<path d="M1120.95 119.504C1120.95 113.365 1125.85 108.453 1131.98 108.453C1138.11 108.453 1143.01 113.365 1143.01 119.504C1143.01 125.643 1138.11 130.554 1131.98 130.554C1125.85 130.554 1120.95 125.643 1120.95 119.504Z" fill="#09FFF1"/>
<path d="M0.492143 142.011C0.492142 137.919 3.75924 134.645 7.84348 134.645C11.9277 134.645 15.1953 137.919 15.1953 142.011C15.1953 146.104 11.9277 149.378 7.84348 149.378C3.75924 149.378 0.492143 146.104 0.492143 142.011Z" fill="#09FFF1"/>
<path d="M67.6471 66.7132C67.6471 62.6205 70.9143 59.3464 74.9986 59.3464C79.0829 59.3464 82.3506 62.6205 82.3506 66.7132C82.3506 70.8058 79.0829 74.08 74.9986 74.08C70.9143 74.08 67.6471 70.8058 67.6471 66.7132Z" fill="#09FFF1"/>
<path d="M4302.9 91.6837C4296.14 91.6837 4290.65 97.1808 4290.65 103.962C4290.65 110.743 4296.14 116.24 4302.9 116.24C4309.67 116.24 4315.16 110.743 4315.16 103.962C4315.16 97.1808 4309.67 91.6837 4302.9 91.6837Z" fill="#FF3ABC"/>
<path d="M3332.44 79.4074C3325.67 79.4074 3320.18 84.9045 3320.18 91.6855C3320.18 98.4664 3325.67 103.964 3332.44 103.964C3339.2 103.964 3344.69 98.4664 3344.69 91.6855C3344.69 84.9045 3339.2 79.4074 3332.44 79.4074Z" fill="#FF3ABC"/>
<path d="M4427.69 349.95C4427.69 343.811 4432.59 338.9 4438.72 338.9C4444.85 338.9 4449.75 343.811 4449.75 349.95C4449.75 356.089 4444.85 361 4438.72 361C4432.59 360.591 4427.69 355.68 4427.69 349.95Z" fill="#09FFF1"/>
<path d="M570.349 95.7864C570.349 91.2844 574.025 87.601 578.517 87.601C583.01 87.601 586.686 91.2844 586.686 95.7864C586.686 100.288 583.01 103.972 578.517 103.972C574.025 104.381 570.349 100.698 570.349 95.7864Z" fill="#09FFF1"/>
</svg>
